<?xml version="1.0" encoding="utf-8"?>
<!-- Generator: Adobe Illustrator 19.0.0, SVG Export Plug-In . SVG Version: 6.00 Build 0)  -->
<svg version="1.1"
	 id="Layer_1" xmlns:dc="http://purl.org/dc/elements/1.1/" xmlns:cc="http://creativecommons.org/ns#" xmlns:sodipodi="http://sodipodi.sourceforge.net/DTD/sodipodi-0.dtd" xmlns:inkscape="http://www.inkscape.org/namespaces/inkscape" xmlns:rdf="http://www.w3.org/1999/02/22-rdf-syntax-ns#" xmlns:svg="http://www.w3.org/2000/svg" inkscape:version="0.91 r13725" sodipodi:docname="logo_wordmark.svg"
	 xmlns="http://www.w3.org/2000/svg" xmlns:xlink="http://www.w3.org/1999/xlink" x="0px" y="0px" viewBox="-206 355.1 128.7 128.2"
	 style="enable-background:new -206 355.1 128.7 128.2;" xml:space="preserve">
<style type="text/css">
	.st0{fill:#1CA7D4;}
	.st1{display:none;}
</style>
<sodipodi:namedview  id="namedview30" guidetolerance="10" pagecolor="#ffffff" gridtolerance="10" bordercolor="#666666" borderopacity="1" objecttolerance="10" fit-margin-top="20" fit-margin-left="20" showgrid="false" inkscape:cx="227.977" inkscape:cy="76.853013" inkscape:zoom="0.51639344" inkscape:window-width="640" inkscape:pageopacity="0" inkscape:pageshadow="2" inkscape:window-height="480" fit-margin-right="20" fit-margin-bottom="20" inkscape:window-x="0" inkscape:window-y="23" inkscape:window-maximized="0" inkscape:current-layer="Layer_1">
	</sodipodi:namedview>
<g id="_x33_20-mark-blue" transform="translate(-77.023,-38.583)">
	<g id="g4">
		<g id="g6">
			<g id="g8">
				<path id="path10" inkscape:connector-curvature="0" class="st0" d="M-84,400.2l-39.4,22.7V475l0,0c0,23.9,19.4,43.4,43.4,43.4
					c7.9,0,15.4-2.1,21.7-5.8l0,0l32-18.5c12.6-6.6,21.2-19.7,21.2-34.9v-54.4l0,0l0,0l-7.9-4.6l-31.5,18.2l0,0l0,0v56.5
					c0,2.4-0.2,4.8-0.7,7.2c-0.4,2.3-1.2,4.5-2.1,6.6c-0.2,0.5-0.5,1.1-0.7,1.6c-1-0.1-1.9-0.2-2.8-0.4c-2-0.4-4-1-5.9-1.8
					c-1.8-0.8-3.7-1.8-5.3-2.9c-1.7-1.1-3.3-2.4-4.7-3.8c-1.4-1.4-2.7-3-3.8-4.7c-1.1-1.7-2.1-3.5-2.9-5.3c-0.8-1.9-1.4-3.9-1.8-5.9
					c-0.4-2.1-0.7-4.2-0.7-6.4l0,0v-54.4L-84,400.2L-84,400.2z M-66.3,507.7c-2.1,0.9-4.4,1.6-6.6,2.1c-2.4,0.4-4.7,0.7-7.2,0.7
					s-4.8-0.2-7.2-0.7c-2.3-0.4-4.5-1.2-6.6-2.1s-4.1-2-6-3.3c-1.8-1.3-3.6-2.7-5.2-4.4c-1.6-1.7-3-3.4-4.4-5.2
					c-1.3-1.9-2.4-3.9-3.3-6c-0.9-2.1-1.6-4.4-2.1-6.6c-0.4-2.4-0.7-4.7-0.7-7.2v-47.6l31.5-18.2v49.9l0,0c0,19,13.4,34.8,31.2,38.6
					c-0.7,0.8-1.4,1.6-2.2,2.4c-1.6,1.6-3.4,3-5.2,4.4C-62.1,505.7-64.1,506.8-66.3,507.7L-66.3,507.7z M-13.7,465.5
					c-0.4,2-1,4-1.8,5.9c-0.8,1.8-1.8,3.7-2.9,5.3c-1.1,1.7-2.4,3.3-3.8,4.7c-1.4,1.4-3,2.7-4.7,3.8c-1.7,1.1-3.5,2.1-5.3,2.9
					c-1.9,0.8-3.9,1.4-5.9,1.8c-0.4,0.1-0.8,0.1-1.3,0.2c1.8-4.7,2.7-9.8,2.7-15.2l0,0v-52.2l0,0l23.6-13.7v49.9
					C-13.1,461.3-13.3,463.4-13.7,465.5z"/>
			</g>
		</g>
	</g>
</g>
<g id="_x33_20-mark-slate" transform="translate(-77.023,-38.583)" class="st1">
</g>
</svg>
